# xmcd
#
# Track frame offsets:
#	150
#	17267
#	39785
#	56982
#	77277
#	95282
#	114655
#	135736
#	154604
#	172306
#	187784
#
# Disc length: 2727 seconds
#
# Revision: 0
# Processed by: cddbd v1.5.2PL0 Copyright (c) Steve Scherf et al.
# Submitted via: audiograbber 1.83.01
#
DISCID=7b0aa50b
DTITLE=Rod Stewart - Human [CD-R]
DYEAR=2001
DGENRE=Pop
TTITLE0=Human
TTITLE1=Smitten
TTITLE2=Don't Come Around Here [with Helicopter Girl]
TTITLE3=Soul On Soul
TTITLE4=Loveless
TTITLE5=If I Had You
TTITLE6=Charlie Parker Loves Me
TTITLE7=It Was Love That We Needed
TTITLE8=To Be With You
TTITLE9=Run Back Into Your Arms
TTITLE10=I Can't Deny It
EXTD=
EXTT0=
EXTT1=
EXTT2=
EXTT3=
EXTT4=
EXTT5=
EXTT6=
EXTT7=
EXTT8=
EXTT9=
EXTT10=
PLAYORDER=
